<?xml version="1.0"?>
<svg xmlns:rdf="http://www.w3.org/1999/02/22-rdf-syntax-ns#" xmlns="http://www.w3.org/2000/svg" xmlns:cc="http://web.resource.org/cc/" xmlns:xlink="http://www.w3.org/1999/xlink" xmlns:dc="http://purl.org/dc/elements/1.1/" xmlns:svg="http://www.w3.org/2000/svg" space="preserve" viewBox="0 0 173.71 127.714" enable-background="new 0 0 173.71 127.714" overflow="visible">
  <g id="Layer_1">
    <g stroke-miterlimit="10" stroke="#000" stroke-width=".036" clip-rule="evenodd" fill-rule="evenodd">
      <path d="m138.38 70.492c-2.986-0.035-5.398 2.305-5.471 5.293-0.217 15.371-0.469 30.744-0.721 46.115-0.035 2.988 2.34 5.436 5.293 5.473 6.875 0.107 13.715 0.215 20.592 0.324 2.988 0.035 5.398-2.34 5.471-5.293 0.217-15.371 0.469-30.744 0.721-46.152 0.035-2.951-2.34-5.398-5.293-5.436-6.88-0.104-13.72-0.211-20.59-0.32z"/>
      <path d="m139.53 73.011c-2.664-0.035-4.859 2.16-4.896 4.896-0.215 14.148-0.467 28.332-0.684 42.516-0.035 2.736 2.088 4.969 4.752 5.041 6.121 0.072 12.277 0.18 18.432 0.287 2.629 0.037 4.824-2.16 4.861-4.895 0.252-14.186 0.467-28.332 0.684-42.518 0.035-2.734-2.088-5.004-4.752-5.039-6.11-0.075-12.27-0.182-18.39-0.292z" fill="#545454"/>
      <path d="m9.894 68.476c-2.952-0.072-5.4 2.305-5.436 5.293-0.252 15.371-0.504 30.742-0.72 46.115-0.072 2.988 2.304 5.436 5.256 5.473 6.876 0.107 13.752 0.215 20.628 0.322 2.952 0.037 5.4-2.34 5.436-5.291 0.252-15.371 0.504-30.744 0.72-46.152 0.072-2.951-2.304-5.4-5.292-5.436-6.84-0.099-13.716-0.209-20.592-0.316z"/>
      <path d="m11.046 70.996c-2.664-0.035-4.86 2.16-4.896 4.896-0.216 14.148-0.432 28.332-0.648 42.516-0.072 2.736 2.052 4.969 4.716 5.041 6.156 0.072 12.276 0.18 18.432 0.287 2.664 0.037 4.86-2.16 4.896-4.896 0.216-14.184 0.432-28.332 0.648-42.516 0.072-2.736-2.052-5.004-4.716-5.039-6.156-0.11-12.276-0.18-18.432-0.289z" fill="#545454"/>
      <path d="m18.714 33.88c-1.548-0.288-3.42-0.396-6.012-0.324-2.592 0-5.688 0.18-9.288 0.54-1.296 0-2.196 0.504-2.7 1.368-0.576 0.828-1.116 2.772-0.504 3.888 0.576 0.936 2.16 1.548 4.068 2.268 1.872 0.612 4.608 1.476 6.804 2.016 2.052 0.504 3.816 0.828 5.436 1.116l0.108 5.4c-1.512 1.476-2.736 3.312-3.816 5.652-1.116 2.232-2.232 5.004-2.772 8.172-0.684 3.24-1.116 7.236-1.008 10.873 0.108 3.563 0.648 6.803 1.476 10.402 0.684 3.564 2.016 7.777 2.88 10.404 0.792 2.52 1.512 3.852 2.16 4.428-1.476 1.584-1.836 2.881-1.08 3.889 0.72 0.863 1.98 1.439 5.436 1.871 3.384 0.506 8.244 0.721 14.724 0.938-0.072 1.152 0.396 2.123 1.008 2.916 0.612 0.646 0.792 1.26 2.916 1.691 2.052 0.359 7.092 0.359 9.288 0.828 2.052 0.432 1.404 1.547 3.348 1.691 1.728 0 2.736-1.115 7.884-1.26 5.184-0.107 14.256-0.072 23.04 0.252 8.785 0.072 22.931 0.469 28.835 0.756 5.725 0.217 3.781 0.973 5.436 0.9 1.584-0.107 0.504-1.225 3.854-1.404 3.311-0.252 11.986 0.469 15.479-0.215 3.35-0.9 4.824-2.484 4.572-4.896 3.24 0.18 6.229 0.252 9.109 0.072 2.879-0.18 6.73-0.037 8.1-1.08 1.223-1.152 0.9-3.025-0.828-5.617 1.26-1.295 2.303-4.066 3.564-8.172 1.08-4.283 3.383-11.051 3.42-16.703-0.109-5.869-1.477-12.708-3.133-17.172-1.656-4.428-3.779-7.38-6.516-9l-0.072-4.464c2.268 0.504 4.787 0.54 7.955 0.108 3.133-0.504 8.748-1.332 10.621-2.88 1.691-1.692 1.584-3.816-0.324-6.768-5.221-0.432-9.145-0.684-12.168-0.612-2.988 0-4.859 0.288-5.615 0.864-0.469 1.44-0.865 2.412-1.332 2.916-0.541 0.432-1.008 0.54-1.549 0.036-1.08-4.536-2.592-9.288-4.824-14.652-2.268-5.364-5.76-13.5-8.387-17.316-2.701-3.924-1.404-4.68-7.236-5.868-6.012-1.296-15.48-1.152-27.865-1.368-12.557-0.319-35.886-0.211-46.254-0.103-10.296 0-11.232-0.828-15.3 0.576-4.104 1.296-6.48 3.816-9.36 7.704-2.952 3.816-6.336 11.124-8.496 15.408-2.376 4.212-3.888 7.524-5.076 9.936z"/>
      <path d="m63.138 0.724c-2.628 0.036-5.616 0.144-9.108 0.324-3.564 0.036-8.64-0.432-11.772 0.54-3.096 0.756-3.888 0.468-7.092 4.968-3.456 4.536-10.584 16.956-13.068 22.248-2.52 5.112-1.548 6.516-1.8 8.928-0.324 2.376-0.252 4.284 0.072 5.58 1.296 1.008 2.448 0.864 3.312-0.036 0.756-0.936 0.72-2.88 1.836-5.832 1.224-3.168 3.132-8.676 5.04-12.636 1.692-4.104 3.6-8.46 5.292-11.124 1.584-2.664 2.988-4.176 4.356-4.68 2.376-0.216 5.472-0.396 9.288-0.54 3.78-0.144 8.244-0.468 13.536-0.576-0.072-0.72-0.036-1.728-0.036-2.88 0.036-1.188 0.036-2.664 0.144-4.284z" fill="#E300CB"/>
      <path d="m64.11 1.12c2.124 0.072 4.644 0.252 7.56 0.252 2.88 0 6.12-0.036 9.864-0.108 0 0.792 0.072 1.8 0.216 2.88 0.072 1.152 0.216 2.196 0.432 3.672l-17.784 0.252c-0.072-2.304-0.18-4.608-0.288-6.948z" fill="#fff"/>
      <path d="m89.274 1.732c1.98-0.108 4.32-0.144 7.164-0.108 2.809-0.036 5.869 0.036 9.469 0.072-0.109 0.972-0.109 1.872-0.145 3.096-0.035 1.08 0.035 2.304 0.072 3.672l-16.843-0.144c0.072-2.196 0.18-4.392 0.287-6.588z" fill="#fff"/>
      <path d="m82.902 1.444l5.004-0.072-0.108 6.768-4.248 0.036-0.648-6.732z" fill="#E300CB"/>
      <path d="m107.27 1.66c3.313-0.108 6.443-0.036 9.684 0.072 3.168 0.072 6.445 0.288 9.289 0.648 2.627 0.216 4.68-1.008 6.984 1.044 2.268 2.052 4.68 7.488 6.551 10.764 1.764 2.988 2.557 4.464 4.176 7.884 1.477 3.492 4.033 8.964 5.186 12.672 1.15 3.528 1.764 6.804 1.691 8.712-0.289 1.764-1.764 3.636-2.881 2.16-1.188-1.692-2.016-6.588-4.031-11.376-2.053-4.86-6.191-12.636-8.389-16.92-2.375-4.284-3.131-6.948-5.328-8.424-2.16-1.512-3.996-0.828-7.74-0.864-3.924-0.252-8.928-0.18-15.299-0.18 0.04-2.052 0.08-4.104 0.11-6.192z" fill="#E300CB"/>
      <path d="m25.086 46.732c0.684-3.564 1.728-7.38 3.132-11.448 1.332-4.212 3.06-9.072 5.04-13.032 1.728-4.032 3.852-8.568 6.228-10.548 2.412-2.088 3.888-1.44 8.316-1.656 4.284-0.324 9.828-0.072 17.604-0.072 7.74-0.036 19.548-0.144 28.62-0.18 9-0.252 19.26-0.468 24.949-0.36 5.471 0.144 5.939-0.072 8.352 1.44 2.447 1.44 4.031 3.744 6.299 7.452 2.197 3.708 4.5 9.072 6.77 14.436 2.23 5.184 4.139 10.764 6.264 16.74-1.908-0.252-5.508-0.288-10.656-0.252-5.4 0.036-15.984 0.792-20.52 0.468-4.5-0.468-2.197-2.232-6.014-2.808-3.924-0.576-9.467-0.828-17.063-0.9-7.813-0.252-22.752-0.576-28.836 0-6.084 0.504-3.708 2.736-7.308 3.384-3.672 0.612-9.252 0.468-14.508 0.396-5.4-0.036-11.016-0.468-17.244-0.9 0.179-0.72 0.359-1.44 0.575-2.16z" fill="#BDBDBD"/>
      <path d="m60.33 48.964c0.144 0.792-0.972 1.332-3.06 1.764-2.232 0.396-4.968 0.504-9.864 0.72-5.04 0.072-14.616 0.108-19.548 0.108-4.86 0-8.136-0.18-9.684-0.252-1.62 0.936-2.916 2.556-4.176 5.256-1.332 2.556-2.664 6.66-3.168 10.512-0.54 3.852-0.432 7.848 0.18 12.385 7.02 0.432 14.58 0.719 23.256 1.008 8.568 0.287 17.82 0.432 28.044 0.576l-0.468-5.184c-1.224-0.109-3.78-0.109-7.524-0.289-3.888-0.107-8.748-0.396-15.12-0.576-2.088 1.188-4.788 1.693-7.704 1.656-3.168-0.035-8.172-0.648-10.296-1.98-2.052-1.619-2.736-4.607-2.196-6.73 0.432-2.197 2.016-4.465 4.752-5.689 2.664-1.332 7.992-2.124 10.98-1.692 2.916 0.396 4.86 2.7 6.264 4.141 1.26 1.367 1.728 2.555 1.404 3.852 1.224-0.18 3.528-0.324 6.768-0.289 3.276-0.07 7.488 0 12.78 0.217l-0.072-19.908c-0.504 0.106-1.008 0.25-1.548 0.394z" fill="#E300CB"/>
      <path d="m110.66 49.432c-0.145 0.576 1.08 1.116 3.672 1.476 2.592 0.252 7.055 0.648 11.844 0.612 4.752-0.072 11.736-0.756 16.236-0.792 4.355-0.108 7.703 0.036 10.043 0.432 1.764 0.972 3.096 2.448 4.537 4.572 1.26 2.124 2.52 5.328 3.383 8.1 0.793 2.556 1.332 4.896 1.477 7.705 0.072 2.807-0.324 5.904-1.043 9.287-4.537 0.252-10.908 0.361-19.514 0.469-8.676 0.072-19.08 0.145-31.752 0.072l-0.252-5.4c3.564 0.145 7.273 0.215 11.412 0.215 4.033-0.07 8.352-0.143 12.961-0.359 1.043 1.439 2.879 2.268 5.652 2.629 2.664 0.252 8.244 0.324 10.619-0.756 2.305-1.225 3.385-3.996 3.385-6.229-0.252-2.232-1.766-5.869-3.564-7.309-1.801-1.512-4.428-1.908-6.625-2.016-2.303-0.288-4.535-0.684-6.551 0.468-2.016 1.08-3.744 3.169-5.328 6.265l-22.3-0.073-0.252-19.152 1.95-0.216z" fill="#E300CB"/>
      <path d="m63.786 47.956c0.9-0.18 2.916-0.396 6.192-0.504 3.168-0.18 7.596-0.252 13.14-0.36l0.288 20.915c-3.6 0.145-7.056 0.252-10.224 0.324-3.276 0.072-6.264 0-9.108-0.072-0.072-6.767-0.18-13.535-0.288-20.303z" fill="#fff"/>
      <path d="m89.129 47.2c2.736-0.036 5.689 0.108 8.713 0.288 3.096 0.144 6.084 0.468 9.504 0.828l0.287 19.728-18.215 0.432c-0.079-7.092-0.186-14.184-0.296-21.276z" fill="#fff"/>
      <path d="m84.306 47.092l3.672-0.072 0.288 21.276-3.672 0.252-0.288-21.456z" fill="#E300CB"/>
      <path d="m38.802 73.048c1.044-0.973 1.656-2.125 1.692-3.313 0.18-1.295-0.216-2.627-1.044-3.852-1.044-1.26-2.556-2.952-4.68-3.42-2.304-0.576-5.796-0.468-8.1 0.324-2.376 0.648-4.5 2.088-5.4 3.745-0.972 1.584-0.612 4.391 0.108 5.795 0.576 1.26 1.872 1.584 3.888 2.088 1.98 0.396 5.796 0.793 8.136 0.648 2.376-0.251 3.996-1.151 5.4-2.015z" fill="#BDBDBD"/>
      <path d="m133.45 73.48c1.117 1.512 3.637 3.492 6.445 3.996 2.699 0.287 7.92-0.324 9.826-1.691 1.693-1.512 1.549-4.285 1.08-6.229-0.504-1.943-1.654-4.104-3.744-4.969-2.23-0.935-6.551-1.187-8.928-0.467-2.375 0.684-4.211 2.844-4.967 4.535-0.84 1.585-0.88 3.241 0.28 4.825z" fill="#BDBDBD"/>
      <path d="m55.002 69.953c-1.08-0.109-2.52-0.109-4.464-0.145-1.98-0.035-4.356 0-7.128 0.107-0.036 0.721-0.108 1.369-0.36 1.945-0.252 0.504-0.684 1.008-1.152 1.367l12.96 0.973c0.036-1.404 0.072-2.808 0.144-4.247z" fill="#FAA13B"/>
      <path d="m130.1 70.636c-1.691 0-3.564 0.072-5.615 0.072-2.125 0-4.393-0.037-6.949-0.107l0.217 3.49 13.176 0.217c-0.26-1.225-0.55-2.447-0.83-3.672z" fill="#FAA13B"/>
      <path d="m107.92 75.785l-17.209 0.252-0.143 4.824 17.604-0.252-0.25-4.824z" fill="#fff"/>
      <path d="m82.362 76.144l-17.208 0.217-0.108 4.859 17.604-0.252-0.288-4.824z" fill="#fff"/>
      <path d="m61.986 85.72c-9.144 0.107-16.236 0.145-21.672 0.107-5.508-0.143-5.904-0.504-10.62-0.648-4.752-0.215-10.584-0.504-17.64-0.719 0.972 3.564 1.98 6.516 3.024 9.252 0.972 2.664 1.98 4.859 3.024 6.732-0.684 0.504-1.116 1.08-1.152 1.584-0.144 0.467-0.864 0.971 0.612 1.512 1.44 0.467 3.096 1.043 7.74 1.439 4.536 0.324 12.888 0.469 19.368 0.721 6.408 0.143 12.492 0.359 18.792 0.504l-0.288-5.617c-3.492 0.252-6.768 0.361-10.26 0.324-3.456-0.107-6.984-0.215-10.44-0.611l-0.108-7.561c3.636 0.18 6.984 0.217 10.44 0.252 3.384 0 6.48 0 9.684-0.143-0.144-2.356-0.324-4.733-0.504-7.108zm-33.3 11.485c0.036 2.34 2.52 4.211 5.58 4.176 3.024-0.037 5.472-1.98 5.436-4.32-0.036-2.375-2.52-4.248-5.58-4.176-3.024 0.035-5.472 1.981-5.436 4.321z" fill="#E300CB"/>
      <path d="m110.37 85.433c9.396 0 16.633-0.072 22.248 0.07 5.436 0.072 6.121 0.361 10.656 0.434 4.607-0.072 9.973-0.289 16.633-0.648-0.217 2.268-0.828 4.68-1.836 7.379-1.152 2.664-2.521 5.365-4.5 8.389 1.043-0.072 1.691 0.504 1.943 1.332 0.287 0.9 0.648 2.988-0.721 3.889-1.547 0.684-3.996 0.539-8.314 0.684-4.5 0.18-11.916 0.215-17.82 0.252-5.977-0.037-11.629-0.252-17.389-0.504l-0.107-6.408c2.303 0.072 4.932 0.145 8.316 0.072 3.238-0.072 7.092-0.18 11.412-0.324l-0.109-7.561c-3.672 0.217-7.02 0.396-10.439 0.541-3.42 0.143-6.516 0.143-9.684 0.143-0.07-2.556-0.18-5.148-0.29-7.74zm34.24 11.123c0 2.34-2.412 4.283-5.473 4.32-3.059 0.072-5.543-1.836-5.58-4.176-0.035-2.34 2.412-4.285 5.473-4.32 3.02-0.041 5.54 1.832 5.58 4.172z" fill="#E300CB"/>
      <path d="m83.874 76.216l0.072 4.787 5.183-0.07-0.07-4.789-5.185 0.072z" fill="#E300CB"/>
      <path d="m64.254 86.007c-0.468 0 0.864-0.035 3.996 0.037 3.168 0 7.848 0.107 14.58 0.18l0.432 20.16c-3.24 0.145-6.156 0.145-9.288 0.145-3.096-0.072-6.12-0.145-9.072-0.361l0.072-5.58c2.916-0.035 5.724 0 8.28-0.035 2.592-0.035 4.932-0.145 7.164-0.18l-0.18-7.633c-3.816 0.109-7.02 0.145-9.612 0.109-2.628-0.109-4.608-0.289-6.084-0.541-0.072-2.075-0.18-4.163-0.288-6.288z" fill="#fff"/>
      <path d="m108.5 85.937c0.359-0.037-0.936-0.037-4.033 0.143-3.096 0.072-7.99 0.324-14.543 0.613l0.107 20.16c3.168 0 6.121 0 9.289-0.145 3.059-0.107 6.084-0.359 9.072-0.613l-0.254-5.578c-2.951 0.107-5.76 0.18-8.279 0.215-2.627 0.037-4.967 0.037-7.164 0v-7.631c3.781-0.072 6.84-0.217 9.576-0.145 2.664-0.072 4.752 0.072 6.408 0.145-0.05-2.365-0.12-4.74-0.19-7.152z" fill="#fff"/>
      <path d="m83.946 86.693l0.252 19.764 4.824-0.072-0.287-19.764-4.789 0.067z" fill="#E300CB"/>
      <path d="m154.22 42.088c0.145-0.468 0.865-1.116 1.584-1.548 0.648-0.648 0.396-1.548 2.305-1.872 1.801-0.36 7.416-0.432 8.496-0.072 0.793 0.36-1.08 1.404-2.557 2.16-1.475 0.504-4.248 0.936-5.795 1.44-1.621 0.468-2.844 1.368-3.527 1.44-0.6-0.108-0.81-1.044-0.49-1.548z" fill="#BDBDBD"/>
      <path d="m17.778 39.496c-0.288-0.54-1.008-1.044-1.62-1.512-0.756-0.684-0.576-1.476-2.376-1.8-1.872-0.216-7.524-0.288-8.496 0.18-0.972 0.288 1.152 1.44 2.628 2.052 1.332 0.504 4.248 0.792 5.832 1.296 1.584 0.432 2.772 1.296 3.564 1.332 0.576-0.108 0.684-1.044 0.468-1.548z" fill="#BDBDBD"/>
    </g>
  </g>
  <metadata>
    <rdf:RDF>
      <cc:Work>
        <dc:format>image/svg+xml</dc:format>
        <dc:type rdf:resource="http://purl.org/dc/dcmitype/StillImage"/>
        <cc:license rdf:resource="http://creativecommons.org/licenses/publicdomain/"/>
        <dc:publisher>
          <cc:Agent rdf:about="http://openclipart.org/">
            <dc:title>Openclipart</dc:title>
          </cc:Agent>
        </dc:publisher>
        <dc:title>Dodge Neon Car</dc:title>
        <dc:date>2007-11-16T03:53:45</dc:date>
        <dc:description>car, clip art, clipart, dodge, mopar, neon, race, transportation, </dc:description>
        <dc:source>http://openclipart.org/detail/8610/dodge-neon-car-by-gerald_g-8610</dc:source>
        <dc:creator>
          <cc:Agent>
            <dc:title>Gerald_G</dc:title>
          </cc:Agent>
        </dc:creator>
        <dc:subject>
          <rdf:Bag>
            <rdf:li>car</rdf:li>
            <rdf:li>clip art</rdf:li>
            <rdf:li>clipart</rdf:li>
            <rdf:li>dodge</rdf:li>
            <rdf:li>mopar</rdf:li>
            <rdf:li>neon</rdf:li>
            <rdf:li>race</rdf:li>
            <rdf:li>transportation</rdf:li>
          </rdf:Bag>
        </dc:subject>
      </cc:Work>
      <cc:License rdf:about="http://creativecommons.org/licenses/publicdomain/">
        <cc:permits rdf:resource="http://creativecommons.org/ns#Reproduction"/>
        <cc:permits rdf:resource="http://creativecommons.org/ns#Distribution"/>
        <cc:permits rdf:resource="http://creativecommons.org/ns#DerivativeWorks"/>
      </cc:License>
    </rdf:RDF>
  </metadata>
</svg>
